<svg version="1.1" preserveAspectRatio="none" xmlns="http://www.w3.org/2000/svg" width="500" height="500" viewBox="0 0 500 500"><rect width="100%" height="100%" fill="#000000" fill-opacity="1"/><svg viewBox="-348.2105 348.798 496.3644 222" width="333" height="148.93493570449454" x="83.5px" y="175.5325px" xmlns="http://www.w3.org/2000/svg" xmlns:xlink="http://www.w3.org/1999/xlink" preserveAspectRatio="none"><defs></defs><style>.aRWrrEA-PR0filter-floo {flood-color:#E9B0D6;flood-opacity:0.5;}.atUk6sjh6M0filter-floo {flood-color:#FFFFFF;flood-opacity:0.89;}.companyName {fill:#FFFFFF;fill-opacity:1;}.icon3 {fill:#F55139;fill-opacity:1;}.icon3-str {stroke:#F55139;stroke-opacity:1;}.shape-floo {flood-color:#2525CE;flood-opacity:1;}.text {fill:#F3F3F3;fill-opacity:1;}</style><defs>
      <filter
        x="-325.3449"
        y="348.798"
        width="458.3541"
        height="222"
        id="ikYEXSHZT"
        filterUnits="userSpaceOnUse"
        primitiveUnits="userSpaceOnUse"
        color-interpolation-filters="sRGB">
        
    <feGaussianBlur in="SourceGraphic" stdDeviation="7"/>
    <feOffset dx="3.860375059564381" dy="3.860375059564381" result="igoq-Fxjvp5"/>
    <feFlood flood-color="#2525CE" flood-opacity="1" in="igoq-Fxjvp5" />
    <feComposite  in2="igoq-Fxjvp5" operator="in" result="paPoX-0WiR5"/><feMerge result="D8k5cH8w5Oy"><feMergeNode in="paPoX-0WiR5" /><feMergeNode in="SourceGraphic" /></feMerge><feGaussianBlur  result="xSpaVX-rJkq" stdDeviation="10" />
      </filter>
      <filter
        x="-282.4969"
        y="383.9376"
        width="364.9372"
        height="144"
        id="tUk6sjh6M"
        filterUnits="userSpaceOnUse"
        primitiveUnits="userSpaceOnUse"
        color-interpolation-filters="sRGB">
        
    <feGaussianBlur in="SourceGraphic" stdDeviation="4"/>
    <feOffset dx="0" dy="0" result="Pu5-hoqvfTn"/>
    <feFlood flood-color="#FFFFFF" flood-opacity="0.89" in="Pu5-hoqvfTn" />
    <feComposite  in2="Pu5-hoqvfTn" operator="in" result="R1ewaoPgKXL"/><feMerge result="vlUdldOH0Sq"><feMergeNode in="R1ewaoPgKXL" /><feMergeNode in="SourceGraphic" /></feMerge>
      </filter></defs><g opacity="1" transform="rotate(0 -348.2105 543.9376)">
<svg width="496.3644" height="22.8" x="-348.2105" y="543.9376" version="1.1" preserveAspectRatio="none" viewBox="1.56 -28.32 795.84 36.56">
  <g transform="matrix(1 0 0 1 0 0)" class="text"><path id="id-6izo4zJp37" d="M15.04-2.60L15.04-2.60Q17.88-2.60 20.02-4.04Q22.16-5.48 23.20-7.92L23.20-7.92L26.36-7.92Q25.04-4.16 22-2L22-2Q18.76 0.32 14.36 0.32L14.36 0.32Q8.56 0.32 4.96-3.64L4.96-3.64Q1.56-7.44 1.56-13.24Q1.56-19.04 4.96-22.84L4.96-22.84Q8.56-26.80 14.36-26.80L14.36-26.80Q18.76-26.80 22-24.48L22-24.48Q25.04-22.32 26.36-18.56L26.36-18.56L23.20-18.56Q22.16-21 20.02-22.44Q17.88-23.88 15.04-23.88Q12.20-23.88 10.32-23.06Q8.44-22.24 7.16-20.80L7.16-20.80Q4.56-17.88 4.56-13.24L4.56-13.24Q4.56-8.60 7.16-5.68L7.16-5.68Q9.88-2.60 15.04-2.60Z M44.56-20.32L44.76-20.32L44.76-17.32L44.40-17.32Q41.16-17.32 39.12-14.72L39.12-14.72Q37.20-12.24 37.20-8.80L37.20-8.80L37.20 0L34.20 0L34.20-20L37.20-20L37.20-15.08Q38.16-18.20 41.36-19.68L41.36-19.68Q42.68-20.32 44.56-20.32L44.56-20.32Z M67.08 0L67.08-3.20Q64.68 0.32 59.92 0.32L59.92 0.32Q55.60 0.32 52.88-2.68L52.88-2.68Q50.24-5.64 50.24-10L50.24-10Q50.24-14.36 52.88-17.32L52.88-17.32Q55.60-20.32 60.12-20.32Q64.64-20.32 67.08-16.76L67.08-16.76L67.08-20L70.08-20L70.08 0L67.08 0ZM60.32-2.40L60.32-2.40Q63.56-2.40 65.44-4.64L65.44-4.64Q67.24-6.76 67.24-10L67.24-10Q67.24-13.24 65.44-15.36L65.44-15.36Q63.56-17.60 60.32-17.60L60.32-17.60Q57.12-17.60 55.12-15.36L55.12-15.36Q53.24-13.24 53.24-10L53.24-10Q53.24-6.76 55.12-4.64L55.12-4.64Q57.12-2.40 60.32-2.40Z M88.28-25.48L87.88-25.48Q85.76-25.48 84.70-24.54Q83.64-23.60 83.64-21.52L83.64-21.52L83.64-20L88.28-20L88.28-17.36L83.64-17.36L83.64 0L80.64 0L80.64-17.36L77.20-17.36L77.20-20L80.64-20L80.64-21.76Q80.64-25.04 82.60-26.68Q84.56-28.32 88.04-28.32L88.04-28.32L88.28-28.32L88.28-25.48Z M100.72 0L97.72 0L97.72-17.36L93.64-17.36L93.64-20L97.72-20L97.72-27.16L100.72-27.16L100.72-20L105.32-20L105.32-17.36L100.72-17.36L100.72 0Z M112.60 0L112.60-20L115.60-20L115.60 0L112.60 0ZM112.48-27.28L115.72-27.28L115.72-23.36L112.48-23.36L112.48-27.28Z M124.80-20L127.80-20L127.80-16.88Q128.88-18.32 130.44-19.32Q132.00-20.32 134.00-20.32Q136.00-20.32 137.44-19.76Q138.88-19.20 139.96-18.08L139.96-18.08Q142.44-15.64 142.44-11.64L142.44-11.64L142.44 0L139.44 0L139.44-11.56Q139.44-14.32 137.88-15.96Q136.32-17.60 133.84-17.60L133.84-17.60Q131.32-17.60 129.56-15.92L129.56-15.92Q127.80-14.20 127.80-11.52L127.80-11.52L127.80 0L124.80 0L124.80-20Z M167.04-16.80L167.04-16.80L167.04-20L170.04-20L170.04-0.60Q170.04 3.72 167.58 5.98Q165.12 8.24 160.96 8.24Q156.80 8.24 154.46 6.64Q152.12 5.04 151.28 2.40L151.28 2.40L154.60 2.40Q155.88 5.52 160.44 5.52L160.44 5.52Q163.92 5.52 165.48 3.92Q167.04 2.32 167.04-0.80L167.04-0.80L167.04-3.56Q164.60 0 159.88 0L159.88 0Q155.56 0 152.84-2.96L152.84-2.96Q150.20-5.84 150.20-10.16L150.20-10.16Q150.20-14.48 152.84-17.36L152.84-17.36Q155.56-20.32 160.10-20.32Q164.64-20.32 167.04-16.80ZM160.28-2.72L160.28-2.72Q161.92-2.72 163.20-3.30Q164.48-3.88 165.40-4.88L165.40-4.88Q167.20-6.96 167.20-10.16L167.20-10.16Q167.20-13.36 165.40-15.44L165.40-15.44Q163.44-17.60 160.28-17.60L160.28-17.60Q157.04-17.60 155.08-15.44L155.08-15.44Q153.20-13.32 153.20-10.16L153.20-10.16Q153.20-7 155.08-4.88L155.08-4.88Q157.04-2.72 160.28-2.72Z M211.20-26.48L211.20-23.60L201.96-23.60L201.96 0L198.96 0L198.96-23.60L189.72-23.60L189.72-26.48L211.20-26.48Z M218.36-28L221.36-28L221.36-16.88Q222.44-18.32 224.00-19.32Q225.56-20.32 227.56-20.32Q229.56-20.32 231.00-19.76Q232.44-19.20 233.52-18.08L233.52-18.08Q236.00-15.64 236.00-11.64L236.00-11.64L236.00 0L233.00 0L233.00-11.56Q233.00-14.32 231.44-15.96Q229.88-17.60 227.40-17.60L227.40-17.60Q224.88-17.60 223.12-15.92L223.12-15.92Q221.36-14.20 221.36-11.52L221.36-11.52L221.36 0L218.36 0L218.36-28Z M255.36-20.32L255.56-20.32L255.56-17.32L255.20-17.32Q251.96-17.32 249.92-14.72L249.92-14.72Q248.00-12.24 248.00-8.80L248.00-8.80L248.00 0L245.00 0L245.00-20L248.00-20L248.00-15.08Q248.96-18.20 252.16-19.68L252.16-19.68Q253.48-20.32 255.36-20.32L255.36-20.32Z M271.20-2.40L271.20-2.40Q275.24-2.40 277.00-5.76L277.00-5.76L280.28-5.76Q279.24-3.04 276.98-1.36Q274.72 0.32 271.16 0.32L271.16 0.32Q266.64 0.32 263.80-2.68L263.80-2.68Q261.04-5.60 261.04-10L261.04-10Q261.04-14.44 263.68-17.32L263.68-17.32Q266.48-20.32 270.96-20.32L270.96-20.32Q275.44-20.32 278.24-17.32L278.24-17.32Q280.88-14.44 280.88-10L280.88-10L280.88-8.80L264.12-8.80Q264.44-6.04 266.32-4.24L266.32-4.24Q268.24-2.40 271.20-2.40ZM270.96-17.60L270.96-17.60Q268.20-17.60 266.32-15.88L266.32-15.88Q264.56-14.24 264.16-11.60L264.16-11.60L277.76-11.60Q277.36-14.24 275.60-15.88L275.60-15.88Q273.72-17.60 270.96-17.60Z M304.16 0L304.16-3.20Q301.76 0.32 297.00 0.32L297.00 0.32Q292.68 0.32 289.96-2.68L289.96-2.68Q287.32-5.64 287.32-10L287.32-10Q287.32-14.36 289.96-17.32L289.96-17.32Q292.68-20.32 297.20-20.32Q301.72-20.32 304.16-16.76L304.16-16.76L304.16-20L307.16-20L307.16 0L304.16 0ZM297.40-2.40L297.40-2.40Q300.64-2.40 302.52-4.64L302.52-4.64Q304.32-6.76 304.32-10L304.32-10Q304.32-13.24 302.52-15.36L302.52-15.36Q300.64-17.60 297.40-17.60L297.40-17.60Q294.20-17.60 292.20-15.36L292.20-15.36Q290.32-13.24 290.32-10L290.32-10Q290.32-6.76 292.20-4.64L292.20-4.64Q294.20-2.40 297.40-2.40Z M331.96 0L331.96-3.20Q329.56 0.32 324.80 0.32L324.80 0.32Q320.48 0.32 317.76-2.68L317.76-2.68Q315.12-5.64 315.12-10L315.12-10Q315.12-14.36 317.76-17.32L317.76-17.32Q320.48-20.32 325.00-20.32Q329.52-20.32 331.96-16.76L331.96-16.76L331.96-28L334.96-28L334.96 0L331.96 0ZM325.20-2.40L325.20-2.40Q328.44-2.40 330.32-4.64L330.32-4.64Q332.12-6.76 332.12-10L332.12-10Q332.12-13.24 330.32-15.36L330.32-15.36Q328.44-17.60 325.20-17.60L325.20-17.60Q322.00-17.60 320.00-15.36L320.00-15.36Q318.12-13.24 318.12-10L318.12-10Q318.12-6.76 320.00-4.64L320.00-4.64Q322.00-2.40 325.20-2.40Z M358.96-14.64L355.92-14.64Q355.52-17.76 350.90-17.76Q346.28-17.76 346.28-14.88L346.28-14.88Q346.28-13.68 347.26-13.06Q348.24-12.44 349.72-12.04Q351.20-11.64 352.94-11.30Q354.68-10.96 356.16-10.34Q357.64-9.72 358.62-8.64Q359.60-7.56 359.60-5.68L359.60-5.68Q359.60-2.76 357.40-1.22Q355.20 0.32 351.44 0.32L351.44 0.32Q347.44 0.32 345.08-1.68L345.08-1.68Q342.92-3.44 342.76-6.28L342.76-6.28L345.88-6.28Q346.16-3.52 349.00-2.56L349.00-2.56Q350.04-2.24 351.06-2.24Q352.08-2.24 352.96-2.36Q353.84-2.48 354.68-2.80L354.68-2.80Q356.60-3.56 356.60-5.40L356.60-5.40Q356.60-6.64 355.62-7.30Q354.64-7.96 353.16-8.38Q351.68-8.80 349.94-9.14Q348.20-9.48 346.72-10.08Q345.24-10.68 344.26-11.72Q343.28-12.76 343.28-14.60L343.28-14.60Q343.28-17.32 345.26-18.82Q347.24-20.32 351.12-20.32L351.12-20.32Q354.80-20.32 356.92-18.56L356.92-18.56Q358.68-17.08 358.96-14.64L358.96-14.64Z M388.64-20.32L388.64-20.32Q393.12-20.32 395.92-17.32L395.92-17.32Q398.56-14.44 398.56-10L398.56-10Q398.56-5.56 395.92-2.68L395.92-2.68Q393.12 0.32 388.64 0.32L388.64 0.32Q384.16 0.32 381.36-2.68L381.36-2.68Q378.72-5.56 378.72-10L378.72-10Q378.72-14.44 381.36-17.32L381.36-17.32Q384.16-20.32 388.64-20.32ZM388.64-2.40L388.64-2.40Q391.88-2.40 393.76-4.64L393.76-4.64Q395.56-6.76 395.56-10L395.56-10Q395.56-13.24 393.76-15.36L393.76-15.36Q391.88-17.60 388.64-17.60L388.64-17.60Q385.40-17.60 383.52-15.36L383.52-15.36Q381.72-13.24 381.72-10L381.72-10Q381.72-6.76 383.52-4.64L383.52-4.64Q385.40-2.40 388.64-2.40Z M415.28-25.48L414.88-25.48Q412.76-25.48 411.70-24.54Q410.64-23.60 410.64-21.52L410.64-21.52L410.64-20L415.28-20L415.28-17.36L410.64-17.36L410.64 0L407.64 0L407.64-17.36L404.20-17.36L404.20-20L407.64-20L407.64-21.76Q407.64-25.04 409.60-26.68Q411.56-28.32 415.04-28.32L415.04-28.32L415.28-28.32L415.28-25.48Z M438.76-22.42Q438-21.76 437.74-20.96Q437.48-20.16 437.48-19.26Q437.48-18.36 438.26-17.60Q439.04-16.84 440.32-16.32Q441.60-15.80 443.24-15.40Q444.88-15 446.58-14.58Q448.28-14.16 449.92-13.62Q451.56-13.08 452.84-12.24L452.84-12.24Q455.68-10.44 455.68-7.32L455.68-7.32Q455.68-3.60 452.90-1.64Q450.12 0.32 445.20 0.32L445.20 0.32Q439.64 0.32 436.72-2L436.72-2Q434.12-4.08 433.76-7.92L433.76-7.92L436.88-7.92Q437.04-5.20 439.52-3.76L439.52-3.76Q441.68-2.52 445.24-2.52L445.24-2.52Q452.68-2.52 452.68-7.20L452.68-7.20Q452.68-8.80 451.34-9.72Q450-10.64 447.98-11.24Q445.96-11.84 443.62-12.36Q441.28-12.88 439.26-13.70Q437.24-14.52 435.90-15.86Q434.56-17.20 434.56-19.48L434.56-19.48Q434.56-22.72 437.04-24.76Q439.52-26.80 444.52-26.80L444.52-26.80Q449.56-26.80 452.32-24.48L452.32-24.48Q454.84-22.44 455-19.24L455-19.24L451.92-19.24Q451.52-22.52 447.68-23.60L447.68-23.60Q446.32-24 444.30-24Q442.28-24 440.90-23.54Q439.52-23.08 438.76-22.42Z M468.84 0L465.84 0L465.84-17.36L461.76-17.36L461.76-20L465.84-20L465.84-27.16L468.84-27.16L468.84-20L473.44-20L473.44-17.36L468.84-17.36L468.84 0Z M497.88-20L486.04 7.92L482.80 7.92L486.44-0.28L478.28-20L481.60-20L488.04-3.60L494.60-20L497.88-20Z M507.60-28L507.60 0L504.60 0L504.60-28L507.60-28Z M525.72-2.40L525.72-2.40Q529.76-2.40 531.52-5.76L531.52-5.76L534.80-5.76Q533.76-3.04 531.50-1.36Q529.24 0.32 525.68 0.32L525.68 0.32Q521.16 0.32 518.32-2.68L518.32-2.68Q515.56-5.60 515.56-10L515.56-10Q515.56-14.44 518.20-17.32L518.20-17.32Q521-20.32 525.48-20.32L525.48-20.32Q529.96-20.32 532.76-17.32L532.76-17.32Q535.40-14.44 535.40-10L535.40-10L535.40-8.80L518.64-8.80Q518.96-6.04 520.84-4.24L520.84-4.24Q522.76-2.40 525.72-2.40ZM525.48-17.60L525.48-17.60Q522.72-17.60 520.84-15.88L520.84-15.88Q519.08-14.24 518.68-11.60L518.68-11.60L532.28-11.60Q531.88-14.24 530.12-15.88L530.12-15.88Q528.24-17.60 525.48-17.60Z M571.20 0L571.20-3.20Q568.80 0.32 564.04 0.32L564.04 0.32Q559.72 0.32 557-2.68L557-2.68Q554.36-5.64 554.36-10L554.36-10Q554.36-14.36 557-17.32L557-17.32Q559.72-20.32 564.24-20.32Q568.76-20.32 571.20-16.76L571.20-16.76L571.20-20L574.20-20L574.20 0L571.20 0ZM564.44-2.40L564.44-2.40Q567.68-2.40 569.56-4.64L569.56-4.64Q571.36-6.76 571.36-10L571.36-10Q571.36-13.24 569.56-15.36L569.56-15.36Q567.68-17.60 564.44-17.60L564.44-17.60Q561.24-17.60 559.24-15.36L559.24-15.36Q557.36-13.24 557.36-10L557.36-10Q557.36-6.76 559.24-4.64L559.24-4.64Q561.24-2.40 564.44-2.40Z M583.40-20L586.40-20L586.40-16.88Q587.48-18.32 589.04-19.32Q590.60-20.32 592.60-20.32Q594.60-20.32 596.04-19.76Q597.48-19.20 598.56-18.08L598.56-18.08Q601.04-15.64 601.04-11.64L601.04-11.64L601.04 0L598.04 0L598.04-11.56Q598.04-14.32 596.48-15.96Q594.92-17.60 592.44-17.60L592.44-17.60Q589.92-17.60 588.16-15.92L588.16-15.92Q586.40-14.20 586.40-11.52L586.40-11.52L586.40 0L583.40 0L583.40-20Z M625.64 0L625.64-3.20Q623.24 0.32 618.48 0.32L618.48 0.32Q614.16 0.32 611.44-2.68L611.44-2.68Q608.80-5.64 608.80-10L608.80-10Q608.80-14.36 611.44-17.32L611.44-17.32Q614.16-20.32 618.68-20.32Q623.20-20.32 625.64-16.76L625.64-16.76L625.64-28L628.64-28L628.64 0L625.64 0ZM618.88-2.40L618.88-2.40Q622.12-2.40 624.00-4.64L624.00-4.64Q625.80-6.76 625.80-10L625.80-10Q625.80-13.24 624.00-15.36L624.00-15.36Q622.12-17.60 618.88-17.60L618.88-17.60Q615.68-17.60 613.68-15.36L613.68-15.36Q611.80-13.24 611.80-10L611.80-10Q611.80-6.76 613.68-4.64L613.68-4.64Q615.68-2.40 618.88-2.40Z M671.64 3.72L671.64 3.72Q674.24 3.72 676.48 1.92L676.48 1.92L678.08 4.08Q675.32 6.28 671.60 6.28L671.60 6.28Q668.64 6.28 666.08 4.64L666.08 4.64Q663.52 3 662.20 0.28L662.20 0.28Q656.48 0.04 652.88-3.84L652.88-3.84Q649.32-7.60 649.32-13.24L649.32-13.24Q649.32-19 653.04-22.84L653.04-22.84Q656.84-26.80 662.76-26.80L662.76-26.80Q668.68-26.80 672.48-22.84L672.48-22.84Q676.20-19 676.20-13.24L676.20-13.24Q676.20-8.20 673.16-4.48L673.16-4.48Q670.12-0.72 665.24 0.08L665.24 0.08Q666.40 2.40 669.20 3.36L669.20 3.36Q670.24 3.72 671.64 3.72ZM662.76-2.60L662.76-2.60Q667.48-2.60 670.40-5.68L670.40-5.68Q673.20-8.64 673.20-13.24L673.20-13.24Q673.20-17.84 670.40-20.80L670.40-20.80Q667.48-23.88 662.76-23.88L662.76-23.88Q658.04-23.88 655.12-20.80L655.12-20.80Q652.32-17.84 652.32-13.24L652.32-13.24Q652.32-8.64 655.12-5.68L655.12-5.68Q658.04-2.60 662.76-2.60Z M701.80 0L698.80 0L698.80-3.12Q697.72-1.68 696.16-0.68Q694.60 0.32 692.60 0.32Q690.60 0.32 689.16-0.24Q687.72-0.80 686.64-1.92L686.64-1.92Q684.16-4.36 684.16-8.36L684.16-8.36L684.16-20L687.16-20L687.16-8.44Q687.16-5.68 688.72-4.04Q690.28-2.40 692.76-2.40L692.76-2.40Q695.28-2.40 697.04-4.08L697.04-4.08Q698.80-5.80 698.80-8.48L698.80-8.48L698.80-20L701.80-20L701.80 0Z M726.60 0L726.60-3.20Q724.20 0.32 719.44 0.32L719.44 0.32Q715.12 0.32 712.40-2.68L712.40-2.68Q709.76-5.64 709.76-10L709.76-10Q709.76-14.36 712.40-17.32L712.40-17.32Q715.12-20.32 719.64-20.32Q724.16-20.32 726.60-16.76L726.60-16.76L726.60-20L729.60-20L729.60 0L726.60 0ZM719.84-2.40L719.84-2.40Q723.08-2.40 724.96-4.64L724.96-4.64Q726.76-6.76 726.76-10L726.76-10Q726.76-13.24 724.96-15.36L724.96-15.36Q723.08-17.60 719.84-17.60L719.84-17.60Q716.64-17.60 714.64-15.36L714.64-15.36Q712.76-13.24 712.76-10L712.76-10Q712.76-6.76 714.64-4.64L714.64-4.64Q716.64-2.40 719.84-2.40Z M741.80-28L741.80 0L738.80 0L738.80-28L741.80-28Z M751.00 0L751.00-20L754.00-20L754.00 0L751.00 0ZM750.88-27.28L754.12-27.28L754.12-23.36L750.88-23.36L750.88-27.28Z M768.36 0L765.36 0L765.36-17.36L761.28-17.36L761.28-20L765.36-20L765.36-27.16L768.36-27.16L768.36-20L772.96-20L772.96-17.36L768.36-17.36L768.36 0Z M797.40-20L785.56 7.92L782.32 7.92L785.96-0.28L777.80-20L781.12-20L787.56-3.60L794.12-20L797.40-20Z"/></g>
</svg>
</g><g filter="url(#ikYEXSHZT)"><g opacity="1" transform="rotate(0 -278.2053 395.9376)">
<svg width="356.3541" height="120" x="-278.2053" y="395.9376" version="1.1" preserveAspectRatio="none" viewBox="1.16 -28.48 86 28.96">
  <g transform="matrix(1 0 0 1 0 0)" class="icon3"><path id="id-BEGfasMba3" d="M24.68-14.44Q26.48-13.72 27.46-12.30Q28.44-10.88 28.44-8.84L28.44-8.84Q28.44-4.48 25-2.24Q21.56 0 15.84 0L15.84 0L1.16 0L6.76-28L20.28-28Q24.80-28 27.24-26.34Q29.68-24.68 29.68-21.60L29.68-21.60Q29.68-19.04 28.34-17.22Q27-15.40 24.68-14.44L24.68-14.44ZM18.76-23.12L12.20-23.12L10.88-16.52L17.48-16.52Q20.04-16.52 21.46-17.54Q22.88-18.56 22.88-20.48L22.88-20.48Q22.88-23.12 18.76-23.12L18.76-23.12ZM16.24-4.88Q18.96-4.88 20.48-5.92Q22-6.96 22-8.92L22-8.92Q22-11.80 17.80-11.80L17.80-11.80L9.96-11.80L8.60-4.88L16.24-4.88Z M55.28-14.44Q57.08-13.72 58.06-12.30Q59.04-10.88 59.04-8.84L59.04-8.84Q59.04-4.48 55.60-2.24Q52.16 0 46.44 0L46.44 0L31.76 0L37.36-28L50.88-28Q55.40-28 57.84-26.34Q60.28-24.68 60.28-21.60L60.28-21.60Q60.28-19.04 58.94-17.22Q57.60-15.40 55.28-14.44L55.28-14.44ZM49.36-23.12L42.80-23.12L41.48-16.52L48.08-16.52Q50.64-16.52 52.06-17.54Q53.48-18.56 53.48-20.48L53.48-20.48Q53.48-23.12 49.36-23.12L49.36-23.12ZM46.84-4.88Q49.56-4.88 51.08-5.92Q52.60-6.96 52.60-8.92L52.60-8.92Q52.60-11.80 48.40-11.80L48.40-11.80L40.56-11.80L39.20-4.88L46.84-4.88Z M72.12 0.48Q68.80 0.48 65.76-0.40Q62.72-1.28 60.88-2.64L60.88-2.64L63.52-7.64Q65.44-6.24 67.84-5.48Q70.24-4.72 72.76-4.72L72.76-4.72Q75.44-4.72 77-5.60Q78.56-6.48 78.56-8L78.56-8Q78.56-9.24 77.32-9.90Q76.08-10.56 73.36-11.32L73.36-11.32Q70.64-12.12 68.92-12.86Q67.20-13.60 65.94-15.08Q64.68-16.56 64.68-19L64.68-19Q64.68-21.84 66.26-24Q67.84-26.16 70.74-27.32Q73.64-28.48 77.48-28.48L77.48-28.48Q80.32-28.48 82.84-27.86Q85.36-27.24 87.16-26.08L87.16-26.08L84.72-21.12Q83.16-22.20 81.20-22.74Q79.24-23.28 77.12-23.28L77.12-23.28Q74.36-23.28 72.76-22.32Q71.16-21.36 71.16-19.84L71.16-19.84Q71.16-18.92 71.84-18.30Q72.52-17.68 73.56-17.30Q74.60-16.92 76.48-16.40L76.48-16.40Q79.16-15.68 80.88-14.94Q82.60-14.20 83.82-12.78Q85.04-11.36 85.04-9.04L85.04-9.04Q85.04-6.16 83.44-4.02Q81.84-1.88 78.92-0.70Q76 0.48 72.12 0.48L72.12 0.48Z"/></g>
</svg>
</g></g><g filter="url(#tUk6sjh6M)"><g opacity="1" transform="rotate(0 -270.4969 395.9376)">
<svg width="340.9372" height="120" x="-270.4969" y="395.9376" version="1.1" preserveAspectRatio="none" viewBox="3.32 -28.48 82.28 28.96">
  <g transform="matrix(1 0 0 1 0 0)" class="companyName"><path id="id-D6z1nYkh3" d="M23.88-14.56Q26.28-13.80 27.64-12.02Q29-10.24 29-7.64L29-7.64Q29-3.96 26.14-1.98Q23.28 0 17.80 0L17.80 0L3.32 0L3.32-28L17-28Q22.12-28 24.86-26.04Q27.60-24.08 27.60-20.72L27.60-20.72Q27.60-18.68 26.62-17.08Q25.64-15.48 23.88-14.56L23.88-14.56ZM16.20-23.12L9.76-23.12L9.76-16.52L16.20-16.52Q18.60-16.52 19.84-17.36Q21.08-18.20 21.08-19.84L21.08-19.84Q21.08-21.48 19.84-22.30Q18.60-23.12 16.20-23.12L16.20-23.12ZM17.32-4.88Q19.88-4.88 21.18-5.72Q22.48-6.56 22.48-8.32L22.48-8.32Q22.48-11.80 17.32-11.80L17.32-11.80L9.76-11.80L9.76-4.88L17.32-4.88Z M54.48-14.56Q56.88-13.80 58.24-12.02Q59.60-10.24 59.60-7.64L59.60-7.64Q59.60-3.96 56.74-1.98Q53.88 0 48.40 0L48.40 0L33.92 0L33.92-28L47.60-28Q52.72-28 55.46-26.04Q58.20-24.08 58.20-20.72L58.20-20.72Q58.20-18.68 57.22-17.08Q56.24-15.48 54.48-14.56L54.48-14.56ZM46.80-23.12L40.36-23.12L40.36-16.52L46.80-16.52Q49.20-16.52 50.44-17.36Q51.68-18.20 51.68-19.84L51.68-19.84Q51.68-21.48 50.44-22.30Q49.20-23.12 46.80-23.12L46.80-23.12ZM47.92-4.88Q50.48-4.88 51.78-5.72Q53.08-6.56 53.08-8.32L53.08-8.32Q53.08-11.80 47.92-11.80L47.92-11.80L40.36-11.80L40.36-4.88L47.92-4.88Z M73.72 0.48Q70.40 0.48 67.30-0.42Q64.20-1.32 62.32-2.76L62.32-2.76L64.52-7.64Q66.32-6.32 68.80-5.52Q71.28-4.72 73.76-4.72L73.76-4.72Q76.52-4.72 77.84-5.54Q79.16-6.36 79.16-7.72L79.16-7.72Q79.16-8.72 78.38-9.38Q77.60-10.04 76.38-10.44Q75.16-10.84 73.08-11.32L73.08-11.32Q69.88-12.08 67.84-12.84Q65.80-13.60 64.34-15.28Q62.88-16.96 62.88-19.76L62.88-19.76Q62.88-22.20 64.20-24.18Q65.52-26.16 68.18-27.32Q70.84-28.48 74.68-28.48L74.68-28.48Q77.36-28.48 79.92-27.84Q82.48-27.20 84.40-26L84.40-26L82.40-21.08Q78.52-23.28 74.64-23.28L74.64-23.28Q71.92-23.28 70.62-22.40Q69.32-21.52 69.32-20.08L69.32-20.08Q69.32-18.64 70.82-17.94Q72.32-17.24 75.40-16.56L75.40-16.56Q78.60-15.80 80.64-15.04Q82.68-14.28 84.14-12.64Q85.60-11 85.60-8.20L85.60-8.20Q85.60-5.80 84.26-3.82Q82.92-1.84 80.24-0.68Q77.56 0.48 73.72 0.48L73.72 0.48Z"/></g>
</svg>
</g></g></svg></svg>